<?xml version="1.0" encoding="UTF-8"?><svg version="1.1" width="27px" height="28px" viewBox="0 0 27.0 28.0" xmlns="http://www.w3.org/2000/svg" xmlns:xlink="http://www.w3.org/1999/xlink"><defs><clipPath id="i0"><path d="M788,0 L788,501 L0,501 L0,0 L788,0 Z"></path></clipPath><clipPath id="i1"><path d="M12.1014493,0 L19.215283,6.75318351 L19.1304348,25.1086957 L0,25.1086957 L0,0 L12.1014493,0 Z"></path></clipPath><clipPath id="i2"><path d="M13.9928668,0 L14.1796875,0.168138587 L21.3536005,7.34205163 L21.5217391,7.52887228 L21.5217391,27.5 L0,27.5 L0,0 L13.9928668,0 Z M13.1521739,1.19565217 L1.19565217,1.19565217 L1.19565217,26.3043478 L20.326087,26.3043478 L20.326087,8.36956522 L13.1521739,8.36956522 L13.1521739,1.19565217 Z M14.3478261,2.05502717 L14.3478261,7.17391304 L19.466712,7.17391304 L14.3478261,2.05502717 Z"></path></clipPath><clipPath id="i3"><path d="M15.8333333,0 L15.8333333,9.06289863 L0,9.06289863 L0,0 L15.8333333,0 Z"></path></clipPath><clipPath id="i4"><path d="M0.266290269,0 C0.339980658,0 0.403622357,0.0259591143 0.457215367,0.0778773428 C0.510808377,0.129795571 0.537604882,0.194274661 0.537604882,0.271314613 C0.537604882,0.348354565 0.510808377,0.413671046 0.457215367,0.467264057 C0.403622357,0.520857067 0.339980658,0.547653572 0.266290269,0.547653572 C0.19259988,0.547653572 0.129795571,0.520857067 0.0778773428,0.467264057 C0.0259591143,0.413671046 0,0.348354565 0,0.271314613 C0,0.194274661 0.0259591143,0.129795571 0.0778773428,0.0778773428 C0.129795571,0.0259591143 0.19259988,0 0.266290269,0 Z"></path></clipPath><clipPath id="i5"><path d="M2.67797572,0 L2.67797572,3.72806376 L2.33632028,3.72806376 L2.33632028,3.20553191 C2.22913426,3.38305876 2.08761522,3.51871607 1.91176316,3.61250383 C1.73591109,3.7062916 1.53744948,3.75318549 1.31637831,3.75318549 C1.06851064,3.75318549 0.844089909,3.69624291 0.643116121,3.58235777 C0.442142333,3.46847262 0.284712866,3.30936837 0.17082772,3.10504502 C0.0569425732,2.90072167 0,2.66792703 0,2.40666111 C0,2.14539518 0.0569425732,1.91260055 0.17082772,1.7082772 C0.284712866,1.50395385 0.442142333,1.34568699 0.643116121,1.23347662 C0.844089909,1.12126626 1.06851064,1.06516108 1.31637831,1.06516108 C1.53075035,1.06516108 1.72418762,1.10954279 1.89669012,1.19830621 C2.06919262,1.28706963 2.21071167,1.4168652 2.32124725,1.58769292 L2.32124725,0 L2.67797572,0 Z M1.34652438,1.37667045 C1.15894884,1.37667045 0.990633295,1.41937738 0.841577736,1.50479124 C0.692522177,1.5902051 0.575287467,1.71162676 0.489873608,1.86905623 C0.404459748,2.02648569 0.361752818,2.20568732 0.361752818,2.40666111 C0.361752818,2.6076349 0.404459748,2.78683652 0.489873608,2.94426599 C0.575287467,3.10169546 0.692522177,3.22311712 0.841577736,3.30853098 C0.990633295,3.39394484 1.15894884,3.43665177 1.34652438,3.43665177 C1.53075035,3.43665177 1.69739112,3.39394484 1.84644668,3.30853098 C1.99550223,3.22311712 2.11273694,3.10169546 2.1981508,2.94426599 C2.28356466,2.78683652 2.32627159,2.6076349 2.32627159,2.40666111 C2.32627159,2.20568732 2.28356466,2.02648569 2.1981508,1.86905623 C2.11273694,1.71162676 1.99550223,1.5902051 1.84644668,1.50479124 C1.69739112,1.41937738 1.53075035,1.37667045 1.34652438,1.37667045 Z"></path></clipPath><clipPath id="i6"><path d="M1.34652438,0 C1.60109118,0 1.83053625,0.0569425732 2.0348596,0.17082772 C2.23918295,0.284712866 2.39912459,0.443817115 2.51468452,0.648140466 C2.63024445,0.852463816 2.68802441,1.08358367 2.68802441,1.34150003 C2.68802441,1.59941639 2.63024445,1.83053625 2.51468452,2.0348596 C2.39912459,2.23918295 2.23918295,2.39912459 2.0348596,2.51468452 C1.83053625,2.63024445 1.60109118,2.68802441 1.34652438,2.68802441 C1.09195758,2.68802441 0.862512506,2.63024445 0.658189155,2.51468452 C0.453865804,2.39912459 0.293086774,2.23918295 0.175852064,2.0348596 C0.0586173548,1.83053625 0,1.59941639 0,1.34150003 C0,1.08358367 0.0586173548,0.852463816 0.175852064,0.648140466 C0.293086774,0.443817115 0.453865804,0.284712866 0.658189155,0.17082772 C0.862512506,0.0569425732 1.09195758,0 1.34652438,0 Z M1.34652438,0.311509371 C1.15894884,0.311509371 0.990633295,0.354216301 0.841577736,0.439630161 C0.692522177,0.525044021 0.575287467,0.646465684 0.489873608,0.803895151 C0.404459748,0.961324618 0.361752818,1.14052625 0.361752818,1.34150003 C0.361752818,1.54247382 0.404459748,1.72167545 0.489873608,1.87910492 C0.575287467,2.03653438 0.692522177,2.15795605 0.841577736,2.24336991 C0.990633295,2.32878377 1.15894884,2.3714907 1.34652438,2.3714907 C1.53409991,2.3714907 1.70241546,2.32878377 1.85147102,2.24336991 C2.00052658,2.15795605 2.1169239,2.03653438 2.20066298,1.87910492 C2.28440205,1.72167545 2.32627159,1.54247382 2.32627159,1.34150003 C2.32627159,1.14052625 2.28440205,0.961324618 2.20066298,0.803895151 C2.1169239,0.646465684 2.00052658,0.525044021 1.85147102,0.439630161 C1.70241546,0.354216301 1.53409991,0.311509371 1.34652438,0.311509371 Z"></path></clipPath><clipPath id="i7"><path d="M1.36159741,0 C1.5893677,0 1.79285366,0.0443817115 1.97205529,0.133145134 C2.15125692,0.221908557 2.29277596,0.351704129 2.39661242,0.522531848 L2.13032215,0.703408257 C2.04323351,0.572775295 1.93269793,0.474800574 1.7987154,0.409484093 C1.66473288,0.344167612 1.51902688,0.311509371 1.36159741,0.311509371 C1.17067231,0.311509371 0.999007203,0.354216301 0.846602081,0.439630161 C0.694196959,0.525044021 0.575287467,0.646465684 0.489873608,0.803895151 C0.404459748,0.961324618 0.361752818,1.14052625 0.361752818,1.34150003 C0.361752818,1.54582338 0.404459748,1.7258624 0.489873608,1.88161709 C0.575287467,2.03737177 0.694196959,2.15795605 0.846602081,2.24336991 C0.999007203,2.32878377 1.17067231,2.3714907 1.36159741,2.3714907 C1.51902688,2.3714907 1.66473288,2.33966985 1.7987154,2.27602815 C1.93269793,2.21238645 2.04323351,2.11524912 2.13032215,1.98461615 L2.39661242,2.16549256 C2.29277596,2.33632028 2.15041953,2.46611585 1.96954312,2.55487928 C1.78866671,2.6436427 1.58601814,2.68802441 1.36159741,2.68802441 C1.10033149,2.68802441 0.86669946,2.63108184 0.660701327,2.51719669 C0.454703195,2.40331155 0.293086774,2.24336991 0.175852064,2.03737177 C0.0586173548,1.83137364 0,1.59941639 0,1.34150003 C0,1.08358367 0.0586173548,0.852463816 0.175852064,0.648140466 C0.293086774,0.443817115 0.454703195,0.284712866 0.660701327,0.17082772 C0.86669946,0.0569425732 1.10033149,0 1.36159741,0 Z"></path></clipPath></defs><g transform="translate(-464.0 -80.0)"><g clip-path="url(#i0)"><g transform="translate(463.9999999999999 80.0)"><g transform="translate(1.1956521739131176 1.195652173913004)"><g clip-path="url(#i1)"><polygon points="0,0 19.215283,0 19.215283,25.1086957 0,25.1086957 0,0" stroke="none" fill="#FFFFFF"></polygon></g></g><g clip-path="url(#i2)"><polygon points="0,0 21.5217391,0 21.5217391,27.5 0,27.5 0,0" stroke="none" fill="#000000"></polygon></g><g transform="translate(10.76086956521749 14.270434701390059)"><g transform=""><g clip-path="url(#i3)"><polygon points="0,0 15.8333333,0 15.8333333,9.06289863 0,9.06289863 0,0" stroke="none" fill="#2D68FF"></polygon><polygon points="0,0 15.8333333,0 15.8333333,9.06289863 0,9.06289863 0,0 0,0" stroke="#000000" stroke-width="2" fill="none" stroke-miterlimit="5"></polygon></g></g><g transform="translate(2.9626627984683864 2.6548565727950972)"><g transform="translate(0.0 3.20553191471663)"><g clip-path="url(#i4)"><polygon points="0,0 0.537604882,0 0.537604882,0.547653572 0,0.547653572 0,0" stroke="none" fill="#FFFFFF"></polygon></g></g><g transform="translate(0.9546254918435009 0.0)"><g clip-path="url(#i5)"><polygon points="0,0 2.67797572,0 2.67797572,3.75318549 0,3.75318549 0,0" stroke="none" fill="#FFFFFF"></polygon></g></g><g transform="translate(4.36113119431667 1.0651610751096998)"><g clip-path="url(#i6)"><polygon points="0,0 2.68802441,0 2.68802441,2.68802441 0,2.68802441 0,0" stroke="none" fill="#FFFFFF"></polygon></g></g><g transform="translate(7.511395317400229 1.0651610751097003)"><g clip-path="url(#i7)"><polygon points="0,0 2.39661242,0 2.39661242,2.68802441 0,2.68802441 0,0" stroke="none" fill="#FFFFFF"></polygon></g></g></g></g></g></g></g></svg>