<?xml version="1.0" encoding="UTF-8"?><svg version="1.1" width="12px" height="12px" viewBox="0 0 12.0 12.0" xmlns="http://www.w3.org/2000/svg" xmlns:xlink="http://www.w3.org/1999/xlink"><defs><clipPath id="i0"><path d="M788,0 L788,501 L0,501 L0,0 L788,0 Z"></path></clipPath><clipPath id="i1"><path d="M5.616,0 C8.71763115,0 11.232,2.51436885 11.232,5.616 C11.232,8.71763115 8.71763115,11.232 5.616,11.232 C2.51436885,11.232 0,8.71763115 0,5.616 C0,2.51436885 2.51436885,0 5.616,0 Z"></path></clipPath></defs><g transform="translate(-331.0 -90.0)"><g clip-path="url(#i0)"><g transform="translate(331.0728898571143 90.096)"><g clip-path="url(#i1)"><polygon points="0,0 11.232,0 11.232,11.232 0,11.232 0,0" stroke="none" fill="#34DA2A"></polygon></g><g transform="translate(2.956838955253488 3.706117710885223)"><path d="M0,1.83894305 L1.81307748,3.81976458 L5.31832209,0" stroke="#FFFFFF" stroke-width="1" fill="none" stroke-linecap="round" stroke-miterlimit="10"></path></g></g></g></g></svg>