<?xml version="1.0" encoding="UTF-8"?><svg version="1.1" width="27px" height="28px" viewBox="0 0 27.0 28.0" xmlns="http://www.w3.org/2000/svg" xmlns:xlink="http://www.w3.org/1999/xlink"><defs><clipPath id="i0"><path d="M788,0 L788,501 L0,501 L0,0 L788,0 Z"></path></clipPath><clipPath id="i1"><path d="M12.1014493,0 L19.215283,6.75318351 L19.1304348,25.1086957 L0,25.1086957 L0,0 L12.1014493,0 Z"></path></clipPath><clipPath id="i2"><path d="M13.9928668,0 L14.1796875,0.168138587 L21.3536005,7.34205163 L21.5217391,7.52887228 L21.5217391,27.5 L0,27.5 L0,0 L13.9928668,0 Z M13.1521739,1.19565217 L1.19565217,1.19565217 L1.19565217,26.3043478 L20.326087,26.3043478 L20.326087,8.36956522 L13.1521739,8.36956522 L13.1521739,1.19565217 Z M14.3478261,2.05502717 L14.3478261,7.17391304 L19.466712,7.17391304 L14.3478261,2.05502717 Z"></path></clipPath><clipPath id="i3"><path d="M15.8333333,0 L15.8333333,9.06289863 L0,9.06289863 L0,0 L15.8333333,0 Z"></path></clipPath><clipPath id="i4"><path d="M0.302115324,0 C0.385719565,0 0.457923227,0.0294514939 0.518726311,0.0883544816 C0.579529395,0.147257469 0.609930937,0.22041118 0.609930937,0.307815613 C0.609930937,0.395220047 0.579529395,0.469323805 0.518726311,0.530126889 C0.457923227,0.590929973 0.385719565,0.621331516 0.302115324,0.621331516 C0.218511083,0.621331516 0.147257469,0.590929973 0.0883544816,0.530126889 C0.0294514939,0.469323805 0,0.395220047 0,0.307815613 C0,0.22041118 0.0294514939,0.147257469 0.0883544816,0.0883544816 C0.147257469,0.0294514939 0.218511083,0 0.302115324,0 Z"></path></clipPath><clipPath id="i5"><path d="M0.513026022,0 L1.41367171,1.17425956 L2.31431739,0 L2.75893994,0 L1.63028269,1.45927402 L2.82734341,2.99835208 L2.36561999,2.99835208 L1.41367171,1.74428847 L0.456023131,2.99835208 L0,2.99835208 L1.18566014,1.45927402 L0.0570028913,0 L0.513026022,0 Z"></path></clipPath><clipPath id="i6"><path d="M0.439872311,0 L0.439872311,4.22961454 L0.035151783,4.22961454 L0.035151783,0 L0.439872311,0 Z"></path></clipPath><clipPath id="i7"><path d="M1.29396563,0 C1.48777546,0 1.68158529,0.0256513011 1.87539512,0.0769539033 C2.06920496,0.128256506 2.22881305,0.195709927 2.35421941,0.279314168 L2.17751045,0.604230648 C1.93049792,0.433221974 1.63598298,0.347717637 1.29396563,0.347717637 C1.03555253,0.347717637 0.840792647,0.39331995 0.709685997,0.484524576 C0.578579347,0.575729202 0.513026022,0.695435274 0.513026022,0.843642792 C0.513026022,0.957648574 0.550077901,1.0488532 0.62418166,1.11725667 C0.698285419,1.18566014 0.790440093,1.23601269 0.900645683,1.26831433 C1.01085127,1.30061597 1.16285898,1.33386766 1.35666881,1.36806939 C1.59608096,1.41367171 1.78799069,1.45927402 1.93239802,1.50487633 C2.07680534,1.55047864 2.20031161,1.6283826 2.30291681,1.73858819 C2.40552201,1.84879378 2.45682462,2.00080149 2.45682462,2.19461132 C2.45682462,2.45682462 2.34756907,2.66488517 2.12905799,2.81879298 C1.91054691,2.97270078 1.60748154,3.04965469 1.21986187,3.04965469 C0.976649538,3.04965469 0.743887732,3.0145029 0.521576456,2.94419934 C0.29926518,2.87389577 0.125406361,2.78554129 0,2.67913589 L0.182409252,2.3599197 C0.307815613,2.45872471 0.465523613,2.53947881 0.65553325,2.60218199 C0.845542888,2.66488517 1.04315291,2.69623676 1.24836332,2.69623676 C1.5219772,2.69623676 1.72433746,2.65348459 1.85544411,2.56798025 C1.98655076,2.48247592 2.05210409,2.3618198 2.05210409,2.20601189 C2.05210409,2.0958063 2.01600226,2.00935192 1.94379859,1.94664874 C1.87159493,1.88394556 1.78039031,1.83644315 1.67018472,1.80414151 C1.55997913,1.77183987 1.41367171,1.74048828 1.23126245,1.71008674 C0.988050116,1.66448443 0.79234019,1.61793207 0.644132672,1.57042966 C0.495925155,1.52292725 0.369568745,1.44217315 0.265063445,1.32816737 C0.160558144,1.21416159 0.108305494,1.05645359 0.108305494,0.85504337 C0.108305494,0.604230648 0.212810794,0.399020239 0.421821396,0.239412144 C0.630831997,0.0798040479 0.921546743,0 1.29396563,0 Z"></path></clipPath></defs><g transform="translate(-464.0 -134.0)"><g clip-path="url(#i0)"><g transform="translate(463.9999999999999 134.0)"><g transform="translate(1.1956521739131176 1.195652173913004)"><g clip-path="url(#i1)"><polygon points="0,0 19.215283,0 19.215283,25.1086957 0,25.1086957 0,0" stroke="none" fill="#FFFFFF"></polygon></g></g><g clip-path="url(#i2)"><polygon points="0,0 21.5217391,0 21.5217391,27.5 0,27.5 0,0" stroke="none" fill="#000000"></polygon></g><g transform="translate(10.76086956521749 14.270434701390059)"><g transform=""><g clip-path="url(#i3)"><polygon points="0,0 15.8333333,0 15.8333333,9.06289863 0,9.06289863 0,0" stroke="none" fill="#04A70B"></polygon><polygon points="0,0 15.8333333,0 15.8333333,9.06289863 0,9.06289863 0,0 0,0" stroke="#000000" stroke-width="2" fill="none" stroke-miterlimit="5"></polygon></g></g><g transform="translate(3.8723115265304386 2.4023913246526263)"><g transform="translate(0.0 3.6367844670992335)"><g clip-path="url(#i4)"><polygon points="0,0 0.609930937,0 0.609930937,0.621331516 0,0.621331516 0,0" stroke="none" fill="#FFFFFF"></polygon></g></g><g transform="translate(1.014651465742418 1.2312624528110523)"><g clip-path="url(#i5)"><polygon points="0,0 2.82734341,0 2.82734341,2.99835208 0,2.99835208 0,0" stroke="none" fill="#FFFFFF"></polygon></g></g><g transform="translate(4.479477210651339 0.0)"><g clip-path="url(#i6)"><polygon points="0.035151783,0 0.439872311,0 0.439872311,4.22961454 0.035151783,4.22961454 0.035151783,0" stroke="none" fill="#FFFFFF"></polygon></g></g><g transform="translate(5.631885663783919 1.208461296277392)"><g clip-path="url(#i7)"><polygon points="0,0 2.45682462,0 2.45682462,3.04965469 0,3.04965469 0,0" stroke="none" fill="#FFFFFF"></polygon></g></g></g></g></g></g></g></svg>